<svg height="480pt" viewBox="-72 0 480 480" width="480pt" xmlns="http://www.w3.org/2000/svg"><path d="m24 8h288c8.835938 0 16 7.164062 16 16v432c0 8.835938-7.164062 16-16 16h-288c-8.835938 0-16-7.164062-16-16v-432c0-8.835938 7.164062-16 16-16zm0 0" fill="#aabece"/><path d="m40 40h256v208h-256zm0 0" fill="#f4f4e6"/><path d="m208 184v-40c.511719-10.757812-3.535156-21.230469-11.152344-28.847656-7.617187-7.617188-18.089844-11.664063-28.847656-11.152344-10.757812-.515625-21.234375 3.535156-28.851562 11.148438-7.613282 7.617187-11.664063 18.09375-11.148438 28.851562v40c-9.480469 3.625-16 9.648438-16 17.601562v14.398438h112v-14.398438c0-7.953124-6.144531-13.847656-16-17.601562zm0 0" fill="#dd3e46"/><path d="m184 88c0-8.835938-7.21875-16-16.121094-16s-16.117187 7.164062-16.117187 16 7.214843 16 16.117187 16 16.121094-7.164062 16.121094-16zm0 0" fill="#dd3e46"/><path d="m191.761719 351.695312c0-13.085937-10.691407-23.695312-23.882813-23.695312-13.1875 0-23.878906 10.609375-23.878906 23.695312 0 13.085938 10.691406 23.695313 23.878906 23.695313 13.191406 0 23.882813-10.609375 23.882813-23.695313zm0 0" fill="#394d5c"/><path d="m232 472h-128l16-64h96zm0 0" fill="#394d5c"/><path d="m96 112c-4.417969 0-8-3.582031-8-8-.253906-8.5625 3.039062-16.847656 9.09375-22.90625 6.058594-6.054688 14.34375-9.347656 22.90625-9.09375 4.417969 0 8 3.582031 8 8s-3.582031 8-8 8c-4.324219-.28125-8.558594 1.316406-11.621094 4.378906s-4.660156 7.296875-4.378906 11.621094c0 4.417969-3.582031 8-8 8zm0 0" fill="#dd3e46"/><path d="m240 112c-4.398438 0-7.972656-3.550781-8-7.953125.289062-4.328125-1.304688-8.570313-4.367188-11.644531-3.0625-3.074219-7.300781-4.675782-11.632812-4.402344-4.417969 0-8-3.582031-8-8s3.582031-8 8-8c8.5625-.253906 16.847656 3.039062 22.90625 9.09375 6.054688 6.058594 9.347656 14.34375 9.09375 22.90625 0 4.417969-3.582031 8-8 8zm0 0" fill="#dd3e46"/><path d="m24 480h288c13.253906 0 24-10.746094 24-24v-432c0-13.253906-10.746094-24-24-24h-288c-13.253906 0-24 10.746094-24 24v432c0 13.253906 10.746094 24 24 24zm90.246094-16 12-48h83.507812l12 48zm-98.246094-440c0-4.417969 3.582031-8 8-8h288c4.417969 0 8 3.582031 8 8v432c0 4.417969-3.582031 8-8 8h-73.753906l-14.484375-57.945312c-.894531-3.558594-4.09375-6.054688-7.761719-6.054688h-96c-3.667969 0-6.867188 2.496094-7.761719 6.054688l-14.484375 57.945312h-73.753906c-4.417969 0-8-3.582031-8-8zm0 0"/><path d="m40 256h256c4.417969 0 8-3.582031 8-8v-208c0-4.417969-3.582031-8-8-8h-256c-4.417969 0-8 3.582031-8 8v208c0 4.417969 3.582031 8 8 8zm8-208h240v192h-240zm0 0"/><path d="m216 178.800781v-34.800781c.621094-18.832031-10.238281-36.15625-27.457031-43.808594 2.238281-3.671875 3.433593-7.890625 3.457031-12.191406 0-13.320312-10.800781-24.121094-24.121094-24.121094-13.320312 0-24.117187 10.800782-24.117187 24.121094.019531 4.335938 1.230469 8.585938 3.503906 12.28125-17.113281 7.695312-27.882813 24.964844-27.265625 43.71875v34.832031c-9.273438 3.871094-15.5 12.730469-16 22.769531v14.398438c0 4.417969 3.582031 8 8 8h112c4.417969 0 8-3.582031 8-8v-14.398438c-.308594-10.113281-6.59375-19.074218-16-22.800781zm-48.121094-98.800781c4.402344.066406 7.925782 3.675781 7.878906 8.078125-.042968 4.402344-3.632812 7.941406-8.039062 7.921875-4.402344-.023438-7.957031-3.597656-7.957031-8 .039062-4.449219 3.667969-8.027344 8.117187-8zm48.121094 128h-96v-6.398438c0-5.394531 7.59375-8.882812 10.855469-10.128906 3.097656-1.183594 5.144531-4.15625 5.144531-7.472656v-40c-.503906-8.632812 2.707031-17.066406 8.820312-23.179688 6.113282-6.113281 14.546876-9.324218 23.179688-8.820312 8.632812-.503906 17.066406 2.707031 23.179688 8.820312 6.113281 6.113282 9.324218 14.546876 8.820312 23.179688v40c0 3.324219 2.054688 6.300781 5.160156 7.480469 4.945313 1.878906 10.839844 5.167969 10.839844 10.121093zm0 0"/><path d="m167.878906 320c-17.480468.101562-31.578125 14.335938-31.511718 31.816406.070312 17.484375 14.277343 31.609375 31.757812 31.574219 17.480469-.03125 31.632812-14.214844 31.636719-31.695313-.074219-17.546874-14.332031-31.726562-31.882813-31.695312zm0 47.390625c-8.644531-.101563-15.578125-7.171875-15.511718-15.816406.070312-8.644531 7.113281-15.605469 15.757812-15.574219 8.644531.035156 15.632812 7.050781 15.636719 15.695312-.0625 8.714844-7.167969 15.738282-15.882813 15.695313zm0 0"/><path d="m120 88c4.417969 0 8-3.582031 8-8s-3.582031-8-8-8c-8.5625-.253906-16.847656 3.039062-22.90625 9.09375-6.054688 6.058594-9.347656 14.34375-9.09375 22.90625 0 4.417969 3.582031 8 8 8s8-3.582031 8-8c-.28125-4.324219 1.316406-8.558594 4.378906-11.621094s7.296875-4.660156 11.621094-4.378906zm0 0"/><path d="m216 72c-4.417969 0-8 3.582031-8 8s3.582031 8 8 8c4.332031-.273438 8.570312 1.328125 11.632812 4.402344 3.0625 3.074218 4.65625 7.316406 4.367188 11.644531.011719 4.417969 3.605469 7.992187 8.023438 7.976563 4.417968-.011719 7.988281-3.605469 7.976562-8.023438.253906-8.5625-3.039062-16.847656-9.09375-22.90625-6.058594-6.054688-14.34375-9.347656-22.90625-9.09375zm0 0"/></svg>