<svg width="900" height="414" viewBox="0 0 900 414" fill="none" xmlns="http://www.w3.org/2000/svg">
  <path fill-rule="evenodd" clip-rule="evenodd" d="M0 0H82H818H900V414H818H82H0V0ZM276 359C353.872 359 417 295.872 417 218C417 140.128 353.872 77 276 77C198.128 77 135 140.128 135 218C135 295.872 198.128 359 276 359ZM621 359C698.872 359 762 295.872 762 218C762 140.128 698.872 77 621 77C543.128 77 480 140.128 480 218C480 295.872 543.128 359 621 359Z" fill="url(#paint0_linear)"/>
  <path fill-rule="evenodd" clip-rule="evenodd" d="M276 379C364.918 379 437 306.918 437 218C437 129.082 364.918 57 276 57C187.082 57 115 129.082 115 218C115 306.918 187.082 379 276 379ZM621 379C709.918 379 782 306.918 782 218C782 129.082 709.918 57 621 57C532.082 57 460 129.082 460 218C460 306.918 532.082 379 621 379ZM417 218C417 295.872 353.872 359 276 359C198.128 359 135 295.872 135 218C135 140.128 198.128 77 276 77C353.872 77 417 140.128 417 218ZM621 359C698.872 359 762 295.872 762 218C762 140.128 698.872 77 621 77C543.128 77 480 140.128 480 218C480 295.872 543.128 359 621 359Z" fill="url(#paint1_diamond)"/>
  <circle cx="426" cy="209" r="7" transform="rotate(-26.4453 426 209)" fill="url(#paint2_radial)"/>
  <rect x="421.865" y="210.118" width="8.4" height="1.68" transform="rotate(-26.4453 421.865 210.118)" fill="#525252"/>
  <circle cx="410.385" cy="149.385" r="7" transform="rotate(6.98319 410.385 149.385)" fill="url(#paint3_radial)"/>
  <rect x="406.318" y="148.041" width="8.4" height="1.68" transform="rotate(6.98319 406.318 148.041)" fill="#525252"/>
  <circle cx="319.799" cy="73.7991" r="7" transform="rotate(6.98319 319.799 73.7991)" fill="url(#paint4_radial)"/>
  <rect x="315.732" y="72.4547" width="8.4" height="1.68" transform="rotate(6.98319 315.732 72.4547)" fill="#525252"/>
  <circle cx="257.799" cy="66.7991" r="7" transform="rotate(-24.8732 257.799 66.7991)" fill="url(#paint5_radial)"/>
  <rect x="253.635" y="67.8036" width="8.4" height="1.68" transform="rotate(-24.8732 253.635 67.8036)" fill="#525252"/>
  <circle cx="195.799" cy="89.7991" r="7" transform="rotate(50.9404 195.799 89.7991)" fill="url(#paint6_radial)"/>
  <rect x="193.805" y="86.0086" width="8.4" height="1.68" transform="rotate(50.9404 193.805 86.0086)" fill="#525252"/>
  <circle cx="152.799" cy="129.799" r="7" transform="rotate(-18.0882 152.799 129.799)" fill="url(#paint7_radial)"/>
  <rect x="148.546" y="130.305" width="8.4" height="1.68" transform="rotate(-18.0882 148.546 130.305)" fill="#525252"/>
  <circle cx="127.799" cy="183.799" r="7" transform="rotate(21.4339 127.799 183.799)" fill="url(#paint8_radial)"/>
  <rect x="124.197" y="181.482" width="8.4" height="1.68" transform="rotate(21.4339 124.197 181.482)" fill="#525252"/>
  <circle cx="125.799" cy="241.799" r="7" transform="rotate(-53.733 125.799 241.799)" fill="url(#paint9_radial)"/>
  <rect x="122.637" y="244.689" width="8.4" height="1.68" transform="rotate(-53.733 122.637 244.689)" fill="#525252"/>
  <circle cx="144.799" cy="298.799" r="7" transform="rotate(72.0175 144.799 298.799)" fill="url(#paint10_radial)"/>
  <rect x="144.301" y="294.545" width="8.4" height="1.68" transform="rotate(72.0175 144.301 294.545)" fill="#525252"/>
  <circle cx="183.799" cy="338.799" r="7" transform="rotate(21.1472 183.799 338.799)" fill="url(#paint11_radial)"/>
  <rect x="180.185" y="336.5" width="8.4" height="1.68" transform="rotate(21.1472 180.185 336.5)" fill="#525252"/>
  <circle cx="243.799" cy="365.799" r="7" transform="rotate(-98.6099 243.799 365.799)" fill="url(#paint12_radial)"/>
  <rect x="243.597" y="370.078" width="8.4" height="1.68" transform="rotate(-98.6099 243.597 370.078)" fill="#525252"/>
  <circle cx="309.799" cy="365.799" r="7" transform="rotate(36.1235 309.799 365.799)" fill="url(#paint13_radial)"/>
  <rect x="306.902" y="362.645" width="8.4" height="1.68" transform="rotate(36.1235 306.902 362.645)" fill="#525252"/>
  <circle cx="371.799" cy="334.799" r="7" transform="rotate(6.98319 371.799 334.799)" fill="url(#paint14_radial)"/>
  <rect x="367.732" y="333.455" width="8.4" height="1.68" transform="rotate(6.98319 367.732 333.455)" fill="#525252"/>
  <circle cx="413.799" cy="277.799" r="7" transform="rotate(80.4249 413.799 277.799)" fill="url(#paint15_radial)"/>
  <rect x="413.929" y="273.518" width="8.4" height="1.68" transform="rotate(80.4249 413.929 273.518)" fill="#525252"/>
  <circle cx="374.799" cy="103.799" r="7" transform="rotate(-2.7937 374.799 103.799)" fill="url(#paint16_radial)"/>
  <rect x="370.563" y="103.165" width="8.4" height="1.68" transform="rotate(-2.7937 370.563 103.165)" fill="#525252"/>
  <circle cx="772" cy="209" r="7" transform="rotate(-26.4453 772 209)" fill="url(#paint17_radial)"/>
  <rect x="767.865" y="210.118" width="8.4" height="1.68" transform="rotate(-26.4453 767.865 210.118)" fill="#525252"/>
  <circle cx="756.385" cy="149.385" r="7" transform="rotate(6.98319 756.385 149.385)" fill="url(#paint18_radial)"/>
  <rect x="752.318" y="148.041" width="8.4" height="1.68" transform="rotate(6.98319 752.318 148.041)" fill="#525252"/>
  <circle cx="665.799" cy="73.7991" r="7" transform="rotate(6.98319 665.799 73.7991)" fill="url(#paint19_radial)"/>
  <rect x="661.732" y="72.4547" width="8.4" height="1.68" transform="rotate(6.98319 661.732 72.4547)" fill="#525252"/>
  <circle cx="603.799" cy="66.7991" r="7" transform="rotate(-24.8732 603.799 66.7991)" fill="url(#paint20_radial)"/>
  <rect x="599.635" y="67.8036" width="8.4" height="1.68" transform="rotate(-24.8732 599.635 67.8036)" fill="#525252"/>
  <circle cx="541.799" cy="89.7991" r="7" transform="rotate(50.9404 541.799 89.7991)" fill="url(#paint21_radial)"/>
  <rect x="539.805" y="86.0086" width="8.4" height="1.68" transform="rotate(50.9404 539.805 86.0086)" fill="#525252"/>
  <circle cx="498.799" cy="129.799" r="7" transform="rotate(-18.0882 498.799 129.799)" fill="url(#paint22_radial)"/>
  <rect x="494.546" y="130.305" width="8.4" height="1.68" transform="rotate(-18.0882 494.546 130.305)" fill="#525252"/>
  <circle cx="473.799" cy="183.799" r="7" transform="rotate(21.4339 473.799 183.799)" fill="url(#paint23_radial)"/>
  <rect x="470.197" y="181.482" width="8.4" height="1.68" transform="rotate(21.4339 470.197 181.482)" fill="#525252"/>
  <circle cx="471.799" cy="241.799" r="7" transform="rotate(-53.733 471.799 241.799)" fill="url(#paint24_radial)"/>
  <rect x="468.637" y="244.689" width="8.4" height="1.68" transform="rotate(-53.733 468.637 244.689)" fill="#525252"/>
  <circle cx="490.799" cy="298.799" r="7" transform="rotate(72.0175 490.799 298.799)" fill="url(#paint25_radial)"/>
  <rect x="490.301" y="294.545" width="8.4" height="1.68" transform="rotate(72.0175 490.301 294.545)" fill="#525252"/>
  <circle cx="529.799" cy="338.799" r="7" transform="rotate(21.1472 529.799 338.799)" fill="url(#paint26_radial)"/>
  <rect x="526.185" y="336.5" width="8.4" height="1.68" transform="rotate(21.1472 526.185 336.5)" fill="#525252"/>
  <circle cx="589.799" cy="365.799" r="7" transform="rotate(-98.6099 589.799 365.799)" fill="url(#paint27_radial)"/>
  <rect x="589.597" y="370.078" width="8.4" height="1.68" transform="rotate(-98.6099 589.597 370.078)" fill="#525252"/>
  <circle cx="655.799" cy="365.799" r="7" transform="rotate(36.1235 655.799 365.799)" fill="url(#paint28_radial)"/>
  <rect x="652.902" y="362.645" width="8.4" height="1.68" transform="rotate(36.1235 652.902 362.645)" fill="#525252"/>
  <circle cx="717.799" cy="334.799" r="7" transform="rotate(6.98319 717.799 334.799)" fill="url(#paint29_radial)"/>
  <rect x="713.732" y="333.455" width="8.4" height="1.68" transform="rotate(6.98319 713.732 333.455)" fill="#525252"/>
  <circle cx="759.799" cy="277.799" r="7" transform="rotate(80.4249 759.799 277.799)" fill="url(#paint30_radial)"/>
  <rect x="759.929" y="273.518" width="8.4" height="1.68" transform="rotate(80.4249 759.929 273.518)" fill="#525252"/>
  <circle cx="720.799" cy="103.799" r="7" transform="rotate(-2.7937 720.799 103.799)" fill="url(#paint31_radial)"/>
  <rect x="716.563" y="103.165" width="8.4" height="1.68" transform="rotate(-2.7937 716.563 103.165)" fill="#525252"/>
  <path d="M429.338 286.134C436.208 271.669 456.792 271.669 463.662 286.134L556.146 480.848C562.134 493.455 552.941 508 538.984 508H354.016C340.059 508 330.866 493.455 336.854 480.848L429.338 286.134Z" fill="url(#paint32_angular)"/>
  <defs>
    <linearGradient id="paint0_linear" x1="450" y1="0" x2="450" y2="414" gradientUnits="userSpaceOnUse">
      <stop stop-color="#707070"/>
      <stop offset="1" stop-color="#3F3C3C"/>
    </linearGradient>
    <radialGradient id="paint1_diamond" cx="0" cy="0" r="1" gradientUnits="userSpaceOnUse" gradientTransform="translate(448.5 218) rotate(129.083) scale(517.886 1072.76)">
      <stop stop-color="#675656"/>
      <stop offset="1" stop-color="#5B3434" stop-opacity="0"/>
    </radialGradient>
    <radialGradient id="paint2_radial" cx="0" cy="0" r="1" gradientUnits="userSpaceOnUse" gradientTransform="translate(426 209) rotate(90) scale(7)">
      <stop stop-color="#807171"/>
      <stop offset="1" stop-color="#3C2D2D"/>
    </radialGradient>
    <radialGradient id="paint3_radial" cx="0" cy="0" r="1" gradientUnits="userSpaceOnUse" gradientTransform="translate(410.385 149.385) rotate(90) scale(7)">
      <stop stop-color="#807171"/>
      <stop offset="1" stop-color="#3C2D2D"/>
    </radialGradient>
    <radialGradient id="paint4_radial" cx="0" cy="0" r="1" gradientUnits="userSpaceOnUse" gradientTransform="translate(319.799 73.7991) rotate(90) scale(7)">
      <stop stop-color="#807171"/>
      <stop offset="1" stop-color="#3C2D2D"/>
    </radialGradient>
    <radialGradient id="paint5_radial" cx="0" cy="0" r="1" gradientUnits="userSpaceOnUse" gradientTransform="translate(257.799 66.7991) rotate(90) scale(7)">
      <stop stop-color="#807171"/>
      <stop offset="1" stop-color="#3C2D2D"/>
    </radialGradient>
    <radialGradient id="paint6_radial" cx="0" cy="0" r="1" gradientUnits="userSpaceOnUse" gradientTransform="translate(195.799 89.7991) rotate(90) scale(7)">
      <stop stop-color="#807171"/>
      <stop offset="1" stop-color="#3C2D2D"/>
    </radialGradient>
    <radialGradient id="paint7_radial" cx="0" cy="0" r="1" gradientUnits="userSpaceOnUse" gradientTransform="translate(152.799 129.799) rotate(90) scale(7)">
      <stop stop-color="#807171"/>
      <stop offset="1" stop-color="#3C2D2D"/>
    </radialGradient>
    <radialGradient id="paint8_radial" cx="0" cy="0" r="1" gradientUnits="userSpaceOnUse" gradientTransform="translate(127.799 183.799) rotate(90) scale(7)">
      <stop stop-color="#807171"/>
      <stop offset="1" stop-color="#3C2D2D"/>
    </radialGradient>
    <radialGradient id="paint9_radial" cx="0" cy="0" r="1" gradientUnits="userSpaceOnUse" gradientTransform="translate(125.799 241.799) rotate(90) scale(7)">
      <stop stop-color="#807171"/>
      <stop offset="1" stop-color="#3C2D2D"/>
    </radialGradient>
    <radialGradient id="paint10_radial" cx="0" cy="0" r="1" gradientUnits="userSpaceOnUse" gradientTransform="translate(144.799 298.799) rotate(90) scale(7)">
      <stop stop-color="#807171"/>
      <stop offset="1" stop-color="#3C2D2D"/>
    </radialGradient>
    <radialGradient id="paint11_radial" cx="0" cy="0" r="1" gradientUnits="userSpaceOnUse" gradientTransform="translate(183.799 338.799) rotate(90) scale(7)">
      <stop stop-color="#807171"/>
      <stop offset="1" stop-color="#3C2D2D"/>
    </radialGradient>
    <radialGradient id="paint12_radial" cx="0" cy="0" r="1" gradientUnits="userSpaceOnUse" gradientTransform="translate(243.799 365.799) rotate(90) scale(7)">
      <stop stop-color="#807171"/>
      <stop offset="1" stop-color="#3C2D2D"/>
    </radialGradient>
    <radialGradient id="paint13_radial" cx="0" cy="0" r="1" gradientUnits="userSpaceOnUse" gradientTransform="translate(309.799 365.799) rotate(90) scale(7)">
      <stop stop-color="#807171"/>
      <stop offset="1" stop-color="#3C2D2D"/>
    </radialGradient>
    <radialGradient id="paint14_radial" cx="0" cy="0" r="1" gradientUnits="userSpaceOnUse" gradientTransform="translate(371.799 334.799) rotate(90) scale(7)">
      <stop stop-color="#807171"/>
      <stop offset="1" stop-color="#3C2D2D"/>
    </radialGradient>
    <radialGradient id="paint15_radial" cx="0" cy="0" r="1" gradientUnits="userSpaceOnUse" gradientTransform="translate(413.799 277.799) rotate(90) scale(7)">
      <stop stop-color="#807171"/>
      <stop offset="1" stop-color="#3C2D2D"/>
    </radialGradient>
    <radialGradient id="paint16_radial" cx="0" cy="0" r="1" gradientUnits="userSpaceOnUse" gradientTransform="translate(374.799 103.799) rotate(90) scale(7)">
      <stop stop-color="#807171"/>
      <stop offset="1" stop-color="#3C2D2D"/>
    </radialGradient>
    <radialGradient id="paint17_radial" cx="0" cy="0" r="1" gradientUnits="userSpaceOnUse" gradientTransform="translate(772 209) rotate(90) scale(7)">
      <stop stop-color="#807171"/>
      <stop offset="1" stop-color="#3C2D2D"/>
    </radialGradient>
    <radialGradient id="paint18_radial" cx="0" cy="0" r="1" gradientUnits="userSpaceOnUse" gradientTransform="translate(756.385 149.385) rotate(90) scale(7)">
      <stop stop-color="#807171"/>
      <stop offset="1" stop-color="#3C2D2D"/>
    </radialGradient>
    <radialGradient id="paint19_radial" cx="0" cy="0" r="1" gradientUnits="userSpaceOnUse" gradientTransform="translate(665.799 73.7991) rotate(90) scale(7)">
      <stop stop-color="#807171"/>
      <stop offset="1" stop-color="#3C2D2D"/>
    </radialGradient>
    <radialGradient id="paint20_radial" cx="0" cy="0" r="1" gradientUnits="userSpaceOnUse" gradientTransform="translate(603.799 66.7991) rotate(90) scale(7)">
      <stop stop-color="#807171"/>
      <stop offset="1" stop-color="#3C2D2D"/>
    </radialGradient>
    <radialGradient id="paint21_radial" cx="0" cy="0" r="1" gradientUnits="userSpaceOnUse" gradientTransform="translate(541.799 89.7991) rotate(90) scale(7)">
      <stop stop-color="#807171"/>
      <stop offset="1" stop-color="#3C2D2D"/>
    </radialGradient>
    <radialGradient id="paint22_radial" cx="0" cy="0" r="1" gradientUnits="userSpaceOnUse" gradientTransform="translate(498.799 129.799) rotate(90) scale(7)">
      <stop stop-color="#807171"/>
      <stop offset="1" stop-color="#3C2D2D"/>
    </radialGradient>
    <radialGradient id="paint23_radial" cx="0" cy="0" r="1" gradientUnits="userSpaceOnUse" gradientTransform="translate(473.799 183.799) rotate(90) scale(7)">
      <stop stop-color="#807171"/>
      <stop offset="1" stop-color="#3C2D2D"/>
    </radialGradient>
    <radialGradient id="paint24_radial" cx="0" cy="0" r="1" gradientUnits="userSpaceOnUse" gradientTransform="translate(471.799 241.799) rotate(90) scale(7)">
      <stop stop-color="#807171"/>
      <stop offset="1" stop-color="#3C2D2D"/>
    </radialGradient>
    <radialGradient id="paint25_radial" cx="0" cy="0" r="1" gradientUnits="userSpaceOnUse" gradientTransform="translate(490.799 298.799) rotate(90) scale(7)">
      <stop stop-color="#807171"/>
      <stop offset="1" stop-color="#3C2D2D"/>
    </radialGradient>
    <radialGradient id="paint26_radial" cx="0" cy="0" r="1" gradientUnits="userSpaceOnUse" gradientTransform="translate(529.799 338.799) rotate(90) scale(7)">
      <stop stop-color="#807171"/>
      <stop offset="1" stop-color="#3C2D2D"/>
    </radialGradient>
    <radialGradient id="paint27_radial" cx="0" cy="0" r="1" gradientUnits="userSpaceOnUse" gradientTransform="translate(589.799 365.799) rotate(90) scale(7)">
      <stop stop-color="#807171"/>
      <stop offset="1" stop-color="#3C2D2D"/>
    </radialGradient>
    <radialGradient id="paint28_radial" cx="0" cy="0" r="1" gradientUnits="userSpaceOnUse" gradientTransform="translate(655.799 365.799) rotate(90) scale(7)">
      <stop stop-color="#807171"/>
      <stop offset="1" stop-color="#3C2D2D"/>
    </radialGradient>
    <radialGradient id="paint29_radial" cx="0" cy="0" r="1" gradientUnits="userSpaceOnUse" gradientTransform="translate(717.799 334.799) rotate(90) scale(7)">
      <stop stop-color="#807171"/>
      <stop offset="1" stop-color="#3C2D2D"/>
    </radialGradient>
    <radialGradient id="paint30_radial" cx="0" cy="0" r="1" gradientUnits="userSpaceOnUse" gradientTransform="translate(759.799 277.799) rotate(90) scale(7)">
      <stop stop-color="#807171"/>
      <stop offset="1" stop-color="#3C2D2D"/>
    </radialGradient>
    <radialGradient id="paint31_radial" cx="0" cy="0" r="1" gradientUnits="userSpaceOnUse" gradientTransform="translate(720.799 103.799) rotate(90) scale(7)">
      <stop stop-color="#807171"/>
      <stop offset="1" stop-color="#3C2D2D"/>
    </radialGradient>
    <radialGradient id="paint32_angular" cx="0" cy="0" r="1" gradientUnits="userSpaceOnUse" gradientTransform="translate(446.5 422) rotate(90) scale(172 141.5)">
      <stop/>
      <stop offset="1" stop-color="#211818" stop-opacity="0"/>
    </radialGradient>
  </defs>
</svg>
